<?xml version="1.0" encoding="utf-8"?>
<!-- Generator: Adobe Illustrator 15.0.2, SVG Export Plug-In . SVG Version: 6.00 Build 0)  -->
<!DOCTYPE svg PUBLIC "-//W3C//DTD SVG 1.1//EN" "http://www.w3.org/Graphics/SVG/1.1/DTD/svg11.dtd">
<svg version="1.1" id="레이어_1" xmlns="http://www.w3.org/2000/svg" xmlns:xlink="http://www.w3.org/1999/xlink" x="0px"
	 y="0px" width="595.28px" height="841.89px" viewBox="0 0 595.28 841.89" enable-background="new 0 0 595.28 841.89"
	 xml:space="preserve">
<g>
	<g display="none">
		<path display="inline" fill="#595757" d="M237.103,447.678h-9.428v1.717l0.532-0.496c0.102-0.098,0.229-0.143,0.389-0.143
			c0,0,2.813,0,3.167,0c-0.063,0.966-0.532,1.727-1.445,2.324c-0.981,0.639-2.154,0.962-3.486,0.962h-0.581l1.256,0.896h0.06
			c1.022,0,2.069-0.254,3.11-0.761c0.891-0.428,1.485-0.977,1.81-1.624c0.328,0.647,0.926,1.196,1.817,1.624
			c1.042,0.507,2.089,0.761,3.112,0.761h0.057l1.256-0.896h-0.579c-1.323,0-2.496-0.321-3.481-0.956
			c-0.917-0.594-1.392-1.358-1.463-2.33c0.353,0,3.15,0,3.15,0c0.169,0,0.303,0.045,0.402,0.143l0.527,0.492l0.005-0.427v-1.286
			H237.103z"/>
		<g display="inline">
			<path fill="#595757" d="M238.745,454.732v-1.604l-0.307,0.217l-0.246,0.172c-0.133,0.091-0.311,0.138-0.524,0.138h-10.356
				c-0.2,0-0.369-0.047-0.513-0.14l-0.593-0.371l0.015,0.342v1.246c0,0,5.235,0,5.582,0v1.049c-0.712,0.128-1.342,0.438-1.871,0.936
				c-0.579,0.543-0.87,1.184-0.87,1.914c0,0.8,0.352,1.491,1.042,2.062c0.681,0.565,1.482,0.851,2.378,0.851
				c0.898,0,1.699-0.285,2.38-0.851c0.691-0.566,1.043-1.262,1.043-2.062c0-0.73-0.293-1.371-0.865-1.914
				c-0.521-0.497-1.156-0.808-1.877-0.936v-1.049C233.509,454.732,238.745,454.732,238.745,454.732z M233.896,457.34
				c0.388,0.362,0.576,0.784,0.576,1.291c0,0.496-0.188,0.915-0.576,1.275c-0.394,0.367-0.855,0.544-1.415,0.544
				c-0.55,0-1.011-0.177-1.405-0.544c-0.394-0.36-0.583-0.779-0.583-1.275c0-0.507,0.189-0.929,0.583-1.291
				c0.395-0.366,0.855-0.545,1.405-0.545C233.041,456.795,233.503,456.974,233.896,457.34z"/>
		</g>
		<path display="inline" fill="#595757" d="M242.472,449.005c0,0,0.985,0,1.582,0c-0.186,0.163-0.357,0.336-0.501,0.53
			c-0.26,0.348-0.391,0.738-0.391,1.162c0,0.756,0.342,1.401,1.02,1.926c0.661,0.516,1.479,0.774,2.43,0.774
			c0.962,0,1.783-0.259,2.439-0.774c0.669-0.524,1.011-1.17,1.011-1.926c0-0.424-0.128-0.813-0.384-1.162
			c-0.14-0.192-0.311-0.367-0.496-0.53c0.595,0,1.556,0,1.556,0c0.175,0,0.311,0.038,0.414,0.12l0.512,0.41l0.008-0.378v-1.174
			c0,0-4.038,0-4.379,0c0-0.22,0-0.604,0-0.604c0-0.175,0.067-0.306,0.216-0.406c0.316-0.22,0.322-0.226,0.342-0.246l0.289-0.313
			h-3.157l0.463,0.349l0.286,0.213c0.137,0.104,0.201,0.237,0.201,0.404c0,0,0,0.385,0,0.604c-0.342,0-4.381,0-4.381,0v1.561
			l0.521-0.419C242.174,449.043,242.306,449.005,242.472,449.005z M245.126,449.527c0.42-0.348,0.922-0.522,1.485-0.522
			c0.567,0,1.065,0.175,1.486,0.522c0.416,0.342,0.617,0.726,0.617,1.17c0,0.437-0.201,0.813-0.617,1.15
			c-0.421,0.341-0.919,0.517-1.486,0.517c-0.563,0-1.065-0.176-1.485-0.517c-0.414-0.338-0.617-0.714-0.617-1.15
			C244.509,450.253,244.712,449.869,245.126,449.527z M248.987,456.745c-0.682-0.532-1.479-0.801-2.376-0.801
			c-0.896,0-1.694,0.269-2.373,0.801c-0.696,0.546-1.049,1.216-1.049,2c0,0.772,0.353,1.439,1.046,1.988
			c0.682,0.537,1.48,0.81,2.376,0.81c0.896,0,1.694-0.272,2.376-0.81c0.692-0.549,1.047-1.216,1.047-1.988
			C250.034,457.963,249.68,457.291,248.987,456.745z M248.007,459.947c-0.387,0.35-0.843,0.52-1.396,0.52
			c-0.54,0-0.994-0.17-1.39-0.52c-0.383-0.343-0.571-0.735-0.571-1.202c0-0.479,0.188-0.877,0.571-1.221
			c0.396-0.348,0.85-0.517,1.39-0.517c0.553,0,1.009,0.169,1.396,0.517c0.383,0.344,0.565,0.742,0.565,1.221
			C248.572,459.21,248.39,459.604,248.007,459.947z M252.605,453.77l-0.193,0.154c-0.094,0.069-0.249,0.108-0.459,0.108h-10.669
			c-0.194,0-0.351-0.039-0.458-0.114l-0.504-0.359l-0.014,0.348v1.176h12.607v-1.558L252.605,453.77z"/>
		<path display="inline" fill="#595757" d="M265.477,450.035h-2.781l0.485,0.351l0.3,0.214c0.145,0.108,0.213,0.257,0.213,0.472
			c0,0,0,1.49,0,1.791c-0.335,0-3.602,0-3.602,0c-0.196,0-0.362-0.051-0.505-0.154l-0.607-0.425l0.022,0.37v1.287h12.382v-1.667
			l-0.311,0.242l-0.249,0.194c-0.134,0.104-0.304,0.152-0.516,0.152c0,0-4.909,0-5.252,0c0-0.301,0-1.791,0-1.791
			c0-0.215,0.066-0.363,0.217-0.47c0.313-0.224,0.321-0.233,0.338-0.253l0.292-0.313H265.477z"/>
		<path display="inline" fill="#595757" d="M269.632,455.068h-8.99v1.392l0.287-0.136l0.213-0.096
			c0.126-0.057,0.282-0.082,0.465-0.082c0,0,6.497,0,6.851,0c0,0.258,0,1.079,0,1.338c-0.355,0-8.657,0-8.657,0l0.529,0.35
			l0.295,0.195c0.137,0.091,0.201,0.252,0.201,0.486v1.075c0,0.473,0.109,0.824,0.329,1.048s0.574,0.338,1.058,0.338h7.844v-1.544
			l-0.306,0.215l-0.205,0.143c-0.104,0.073-0.247,0.108-0.424,0.108c0,0-6.584,0-6.936,0c0-0.257,0-1.077,0-1.339
			c0.352,0,7.63,0,7.63,0v-3.491H269.632z"/>
		<path display="inline" fill="#595757" d="M269.658,447.607h-9.088v1.662l0.312-0.236l0.256-0.195
			c0.137-0.103,0.299-0.153,0.495-0.153c0,0,6.499,0,6.851,0c0,0.296,0,1.54,0,1.54c0,0.4-0.014,0.749-0.041,1.047
			c-0.026,0.282-0.102,0.557-0.224,0.807l-0.129,0.266h1.083l0.056-0.059c0.173-0.185,0.316-0.478,0.437-0.902
			c0.119-0.404,0.178-0.813,0.178-1.218v-2.558H269.658z"/>
		<path display="inline" fill="#595757" d="M284.985,457.635l-0.258,0.246c-0.131,0.123-0.293,0.18-0.501,0.18h-9.792
			c-0.191,0-0.352-0.057-0.492-0.184c-0.28-0.25-0.302-0.26-0.33-0.276l-0.267-0.13v1.67h11.956v-1.803L284.985,457.635z"/>
		<path display="inline" fill="#595757" d="M283.732,447.888h-9.892l0.461,0.349l0.286,0.22c0.143,0.11,0.211,0.264,0.211,0.467
			v4.804c0,0.459,0.135,0.811,0.395,1.042c0.255,0.229,0.612,0.346,1.062,0.346h7.859v-1.519l-0.297,0.184l-0.237,0.141
			c-0.13,0.079-0.288,0.114-0.47,0.114c0,0-6.599,0-6.949,0c0-0.331,0-4.734,0-5.068c0.351,0,6.766,0,6.766,0
			c0.172,0,0.326,0.041,0.457,0.117l0.516,0.313l0.019-0.317v-1.191H283.732z"/>
		<path display="inline" fill="#595757" d="M299.519,457.635l-0.262,0.246c-0.129,0.123-0.294,0.18-0.501,0.18h-9.932
			c-0.19,0-0.354-0.057-0.492-0.184c-0.281-0.25-0.302-0.26-0.33-0.276l-0.269-0.13v1.67h12.099v-1.803L299.519,457.635z"/>
		<path display="inline" fill="#595757" d="M294.813,447.75h-2.618l0.448,0.344l0.253,0.197c0.12,0.094,0.179,0.243,0.179,0.448
			v1.188c0,1-0.509,2.005-1.505,2.99c-1.002,0.986-2.147,1.485-3.41,1.485h-0.581l1.256,0.895h0.059c0.988,0,2.026-0.396,3.09-1.182
			c0.888-0.651,1.482-1.327,1.804-2.006c0.331,0.679,0.925,1.354,1.805,2.006c1.058,0.786,2.097,1.182,3.095,1.182h0.056
			l1.259-0.895h-0.581c-1.272,0-2.424-0.499-3.423-1.485c-0.999-0.985-1.506-1.99-1.506-2.99v-1.188
			c0-0.205,0.059-0.354,0.178-0.448l0.68-0.555L294.813,447.75z"/>
		<path display="inline" fill="#595757" d="M314.45,450.985l-0.188,0.082c-0.115,0.05-0.268,0.072-0.459,0.072c0,0-0.907,0-1.187,0
			c0-0.322,0-2.501,0-2.501c0-0.213,0.072-0.359,0.223-0.469l0.788-0.578l-0.587,0.016h-2.757l0.476,0.348l0.29,0.213
			c0.142,0.104,0.209,0.26,0.209,0.471c0,0,0,6.096,0,6.354c-0.19,0.069-0.428,0.128-0.729,0.168
			c-0.37,0.053-0.817,0.079-1.331,0.079c0,0-0.546,0-0.789,0v-6.131c0.234,0,0.731,0,0.731,0c0.192,0,0.347,0.023,0.459,0.071
			l0.447,0.195l0.027-0.269v-1.075h-8.211v1.357l0.285-0.127l0.194-0.082c0.118-0.048,0.271-0.071,0.455-0.071c0,0,0.497,0,0.733,0
			v6.131c-0.236,0-0.733,0-0.733,0c-0.203,0-0.37-0.034-0.492-0.102l-0.493-0.269l-0.021,0.299v1.146h7.322
			c0.529,0,0.999-0.046,1.398-0.137c0.28-0.066,0.523-0.152,0.746-0.245c0,0.494,0,4.013,0,4.013c0,0.214-0.067,0.368-0.209,0.472
			l-0.748,0.55l0.549,0.01h2.78l-0.444-0.315l-0.343-0.246c-0.154-0.108-0.227-0.256-0.227-0.47c0,0,0-7.374,0-7.728
			c0.279,0,1.187,0,1.187,0c0.191,0,0.349,0.021,0.465,0.065l0.441,0.178l0.027-0.261v-1.342L314.45,450.985z M307.048,455.239
			h-2.158v-6.131h2.158V455.239z"/>
		<path display="inline" fill="#595757" d="M326.479,458.381c-0.326-0.09-0.691-0.243-1.087-0.452
			c-0.396-0.207-0.736-0.442-1.015-0.693c0,0-0.272-0.258-0.433-0.411c0.194-0.263,0.386-0.574,0.581-0.95
			c0.227-0.448,0.387-0.874,0.473-1.274c0.063-0.246,0.174-0.414,0.342-0.505c0.342-0.191,0.35-0.199,0.373-0.221l0.064-0.066
			l-0.049-0.364h-2.501l-0.052,0.4l0.442,0.243c0.069,0.04,0.142,0.104,0.142,0.267c0,0.039-0.005,0.085-0.013,0.138
			c-0.011,0.027-0.215,0.657-0.215,0.657c-0.102,0.312-0.245,0.569-0.411,0.796c-0.258-0.291-2.052-2.326-2.322-2.634
			c0.506-0.213,0.995-0.482,1.441-0.828c0.537-0.416,0.866-0.903,0.979-1.443c0.035-0.169,0.055-0.34,0.055-0.509
			c0-0.493-0.152-0.984-0.452-1.469c-0.412-0.668-1.097-1.052-2.042-1.143c-0.817-0.08-1.545,0.139-2.156,0.651
			c-0.613,0.511-0.94,1.151-0.969,1.902c-0.002,0.027-0.004,0.058-0.004,0.088c0,0.438,0.138,0.893,0.411,1.348
			c0.23,0.388,0.463,0.715,0.688,1.003c-0.492,0.268-0.984,0.595-1.462,0.999c-0.57,0.484-0.886,1.162-0.935,2.011
			c-0.005,0.067-0.005,0.132-0.005,0.196c0,1.001,0.369,1.768,1.094,2.271c0.75,0.519,1.515,0.781,2.273,0.781
			c0.579,0,1.201-0.132,1.85-0.394c0.591-0.237,1.089-0.556,1.497-0.938c0.082,0.079,0.167,0.16,0.167,0.16l0.395,0.349
			c0.208,0.167,0.426,0.29,0.65,0.372l0.327,0.125l0.062,0.014h1.915l0.054-0.434L326.479,458.381z M319.477,449.441
			c0.291-0.333,0.672-0.481,1.16-0.447c0.551,0.035,0.917,0.25,1.129,0.656c0.147,0.293,0.225,0.566,0.225,0.828
			c0,0.123-0.017,0.243-0.05,0.361c-0.109,0.4-0.36,0.716-0.767,0.97c-0.39,0.244-0.756,0.426-1.099,0.552
			c-0.197-0.198-0.41-0.443-0.642-0.745c-0.242-0.321-0.374-0.664-0.393-1.019c0-0.013,0-0.026,0-0.039
			C319.041,450.145,319.186,449.776,319.477,449.441z M321.197,457.68c-0.474,0.234-0.939,0.35-1.376,0.342
			c-0.65-0.018-1.152-0.217-1.53-0.607c-0.379-0.393-0.563-0.896-0.563-1.54c0-0.442,0.196-0.844,0.6-1.236
			c0.381-0.368,0.771-0.623,1.167-0.773c0.156,0.18,2.503,2.881,2.698,3.109C321.947,457.233,321.615,457.473,321.197,457.68z"/>
		<path display="inline" fill="#595757" d="M340.044,447.607h-2.756l0.476,0.348l0.29,0.213c0.139,0.104,0.209,0.26,0.209,0.471
			c0,0,0,6.065,0,6.305c-0.226,0.101-0.514,0.192-0.889,0.278c-0.426,0.096-0.92,0.144-1.471,0.144c0,0-5.259,0-5.606,0
			c0-0.308,0-2.306,0-2.61c0.346,0,5.51,0,5.51,0v-4.724h-6.983v1.498l0.302-0.194l0.2-0.127c0.105-0.064,0.248-0.1,0.419-0.1
			c0,0,4.359,0,4.703,0c0,0.304,0,2.278,0,2.584c-0.349,0-6.526,0-6.526,0l0.506,0.348l0.299,0.207
			c0.145,0.101,0.211,0.249,0.211,0.463v2.36c0,0.437,0.124,0.78,0.366,1.013c0.241,0.239,0.601,0.358,1.063,0.358h5.454
			c0.562,0,1.085-0.069,1.549-0.205c0.344-0.099,0.633-0.222,0.895-0.354c0,0.524,0,4.063,0,4.063c0,0.214-0.07,0.368-0.209,0.472
			l-0.749,0.55l0.551,0.01h2.776l-0.443-0.315l-0.34-0.246c-0.155-0.108-0.228-0.256-0.228-0.47v-11.307
			c0-0.213,0.07-0.359,0.22-0.469l0.789-0.578L340.044,447.607z"/>
		<path display="inline" fill="#595757" d="M349.509,454.955h-2.584l0.428,0.344l0.259,0.21c0.127,0.106,0.188,0.263,0.188,0.479
			c0,0,0,1.763,0,2.072c-0.34,0-4.279,0-4.279,0c-0.192,0-0.353-0.057-0.492-0.184c-0.28-0.25-0.301-0.26-0.332-0.276l-0.266-0.13
			v1.67h12.099v-1.803l-0.574,0.543c-0.132,0.123-0.295,0.18-0.501,0.18c0,0-3.954,0-4.296,0c0-0.31,0-2.072,0-2.072
			c0-0.217,0.063-0.373,0.193-0.479l0.689-0.565L349.509,454.955z"/>
		<path display="inline" fill="#595757" d="M353.367,447.888h-9.961v1.619l0.519-0.418c0.104-0.082,0.234-0.123,0.399-0.123
			c0,0,3.114,0,3.448,0c0,0.256,0,0.892,0,0.892c0,0.996-0.508,2.004-1.507,2.989c-1,0.987-2.148,1.487-3.41,1.487h-0.581
			l1.258,0.892h0.06c0.987,0,2.026-0.397,3.09-1.18c0.891-0.652,1.481-1.328,1.8-2.008c0.336,0.68,0.93,1.354,1.81,2.008
			c1.053,0.782,2.093,1.18,3.091,1.18h0.061l1.257-0.892h-0.583c-1.271,0-2.42-0.5-3.423-1.487
			c-0.997-0.985-1.505-1.993-1.505-2.989c0,0,0-0.636,0-0.892c0.334,0,3.431,0,3.431,0c0.177,0,0.313,0.041,0.414,0.123l0.513,0.41
			l0.008-0.379v-1.232H353.367z"/>
		<path display="inline" fill="#595757" d="M368.273,457.635l-0.262,0.246c-0.127,0.123-0.292,0.18-0.499,0.18h-9.791
			c-0.193,0-0.354-0.057-0.492-0.184c-0.282-0.25-0.303-0.26-0.331-0.276l-0.267-0.13v1.67h11.956v-1.803L368.273,457.635z"/>
		<path display="inline" fill="#595757" d="M367.073,447.888h-9.961l0.461,0.352l0.287,0.217c0.142,0.11,0.213,0.264,0.213,0.467
			v5.185c0,0.458,0.13,0.811,0.393,1.045c0.255,0.228,0.615,0.342,1.063,0.342h7.916v-1.516l-0.3,0.183l-0.235,0.142
			c-0.132,0.078-0.29,0.114-0.471,0.114c0,0-6.654,0-7.005,0c0-0.29,0-1.838,0-2.13c0.351,0,6.721,0,6.721,0
			c0.18,0,0.341,0.035,0.479,0.101l0.506,0.256l0.022-0.286v-1.146c0,0-7.375,0-7.728,0c0-0.294,0-1.949,0-2.245
			c0.351,0,6.835,0,6.835,0c0.176,0,0.326,0.039,0.458,0.117l0.518,0.313l0.017-0.317v-1.191H367.073z"/>
	</g>
	<g display="none">
		<path display="inline" fill="#595757" d="M246.154,473.232v-5.102c0-0.394-0.038-0.669-0.111-0.822
			c-0.078-0.154-0.222-0.255-0.438-0.302l-0.299-0.065c-0.101-0.021-0.151-0.064-0.151-0.135c0-0.074,0.054-0.113,0.165-0.109
			c0.067,0.004,0.188,0.017,0.364,0.037c0.172,0.021,0.457,0.03,0.854,0.03c0.337,0,0.55-0.004,0.634-0.012
			c0.164-0.026,0.26-0.036,0.284-0.036c0.065,0,0.098,0.027,0.098,0.09c0,0.064-0.048,0.104-0.143,0.129
			c-0.188,0.048-0.313,0.123-0.384,0.225c-0.064,0.104-0.1,0.277-0.1,0.525v0.416l-0.004,0.213v4.415l0.004,0.243l-0.064,0.661
			c-0.117,0.551-0.354,1.012-0.709,1.385c-0.354,0.375-0.732,0.562-1.137,0.562c-0.113,0-0.211-0.026-0.294-0.079
			c-0.083-0.05-0.123-0.109-0.123-0.181c0-0.027,0.008-0.07,0.02-0.12c0.013-0.026,0.026-0.089,0.047-0.188
			c0.045-0.207,0.109-0.312,0.194-0.312c0.04,0,0.1,0.045,0.176,0.133c0.135,0.153,0.281,0.231,0.441,0.231
			c0.195,0,0.36-0.129,0.494-0.382c0.134-0.256,0.202-0.572,0.202-0.946L246.154,473.232z"/>
		<path display="inline" fill="#595757" d="M251.133,473.024c-0.39,0.503-0.862,0.752-1.421,0.752c-0.468,0-0.835-0.145-1.101-0.437
			c-0.264-0.291-0.394-0.695-0.394-1.216l0.007-0.332v-1.668c0-0.171-0.036-0.289-0.108-0.358c-0.068-0.066-0.201-0.104-0.394-0.114
			c-0.082-0.006-0.122-0.04-0.119-0.103c0.004-0.059,0.109-0.093,0.313-0.101l0.383-0.02c0.086-0.004,0.21-0.028,0.378-0.067
			c0.048-0.014,0.086-0.02,0.11-0.02c0.09,0,0.138,0.077,0.138,0.235v0.076l-0.028,2.248v0.162l0.081,0.609
			c0.069,0.215,0.201,0.392,0.391,0.533c0.193,0.141,0.401,0.211,0.625,0.211c0.295,0,0.559-0.087,0.787-0.26
			c0.231-0.173,0.348-0.37,0.348-0.594v-2.407c0-0.191-0.034-0.321-0.1-0.395c-0.064-0.07-0.189-0.104-0.366-0.104
			c-0.106,0-0.16-0.032-0.16-0.095c0-0.074,0.061-0.112,0.182-0.114l0.166-0.012l0.351-0.016c0.118-0.004,0.246-0.033,0.396-0.079
			c0.048-0.017,0.088-0.024,0.12-0.028c0.072-0.004,0.106,0.059,0.106,0.181v3.268c0,0.257,0.028,0.428,0.083,0.511
			c0.056,0.082,0.167,0.12,0.339,0.12h0.08l0.068-0.004c0.075,0,0.113,0.026,0.115,0.076c0.004,0.073-0.094,0.115-0.289,0.125
			l-0.316,0.02c-0.217,0.009-0.359,0.022-0.42,0.038c-0.082,0.019-0.143,0.03-0.188,0.03c-0.105,0-0.159-0.156-0.159-0.464
			L251.133,473.024z"/>
		<path display="inline" fill="#595757" d="M254.15,470.223c0.449-0.533,0.917-0.798,1.398-0.798c0.536,0,0.96,0.221,1.272,0.658
			c0.215,0.302,0.321,0.763,0.321,1.38v1.202l-0.004,0.149l0.014,0.24c0.038,0.224,0.179,0.353,0.424,0.389l0.212,0.029
			c0.091,0.014,0.138,0.047,0.139,0.097c0.006,0.072-0.049,0.108-0.163,0.108c-0.038,0-0.104-0.006-0.196-0.016
			c-0.111-0.017-0.313-0.022-0.611-0.022l-0.499,0.015h-0.19l-0.146,0.012l-0.069-0.017c-0.025-0.012-0.036-0.038-0.036-0.076
			c0-0.048,0.03-0.083,0.092-0.095l0.15-0.039c0.131-0.035,0.199-0.155,0.199-0.362v-1.731c0-0.466-0.108-0.824-0.319-1.077
			c-0.215-0.253-0.52-0.378-0.915-0.378c-0.278,0-0.526,0.08-0.741,0.243c-0.216,0.165-0.322,0.352-0.322,0.564v1.915l0.005,0.15
			l0.004,0.251c0.019,0.283,0.25,0.437,0.696,0.464c0.111,0.008,0.167,0.047,0.167,0.107c0,0.06-0.038,0.092-0.115,0.092
			c-0.058,0-0.144-0.012-0.257-0.028c-0.063-0.008-0.222-0.01-0.473-0.01c-0.533,0-0.851,0.006-0.953,0.022
			c-0.104,0.01-0.172,0.016-0.202,0.016c-0.063,0-0.093-0.028-0.09-0.084c0.003-0.042,0.032-0.074,0.094-0.102
			c0.171-0.057,0.284-0.132,0.342-0.216c0.061-0.09,0.089-0.229,0.089-0.425v-2.268c0-0.234-0.028-0.397-0.086-0.485
			c-0.057-0.083-0.162-0.126-0.319-0.126l-0.216,0.006c-0.028,0-0.057-0.008-0.08-0.021c-0.029-0.013-0.046-0.038-0.046-0.07
			c0-0.048,0.045-0.08,0.132-0.098c0.223-0.041,0.439-0.107,0.646-0.204l0.266-0.131c0.102-0.05,0.17-0.082,0.194-0.093
			c0.044-0.027,0.085-0.042,0.118-0.042c0.063,0,0.089,0.049,0.083,0.145c-0.005,0.055-0.008,0.117-0.008,0.191V470.223z"/>
		<path display="inline" fill="#595757" d="M258.76,473.79v-0.035c-0.225-0.173-0.341-0.366-0.341-0.572
			c0-0.389,0.194-0.725,0.585-0.998c-0.446-0.266-0.669-0.678-0.669-1.238c0-0.437,0.146-0.798,0.438-1.088
			c0.295-0.289,0.663-0.434,1.104-0.434c0.399,0,0.758,0.104,1.076,0.304c0.112,0.073,0.196,0.11,0.247,0.11
			c0.119,0,0.257-0.041,0.406-0.127c0.15-0.087,0.24-0.171,0.27-0.256l0.065-0.192c0.01-0.036,0.038-0.055,0.078-0.059
			c0.059-0.004,0.087,0.036,0.087,0.12c0,0.069-0.024,0.197-0.076,0.393c-0.054,0.195-0.099,0.332-0.139,0.408
			c-0.058,0.11-0.157,0.187-0.297,0.229c-0.065,0.018-0.094,0.047-0.094,0.088c0,0.022,0.004,0.057,0.012,0.097
			c0.029,0.104,0.047,0.247,0.047,0.423c0,0.381-0.156,0.713-0.467,0.996c-0.312,0.281-0.672,0.423-1.09,0.423
			c-0.175,0-0.374-0.017-0.596-0.061c-0.063-0.014-0.115-0.022-0.161-0.022c-0.103,0-0.206,0.059-0.304,0.177
			c-0.101,0.117-0.148,0.239-0.148,0.366c0,0.173,0.095,0.298,0.276,0.372c0.184,0.072,0.495,0.11,0.942,0.11
			c0.655,0,1.123,0.066,1.396,0.205c0.276,0.137,0.411,0.374,0.411,0.708c0,0.386-0.191,0.712-0.574,0.979
			c-0.383,0.268-0.853,0.402-1.408,0.402c-0.535,0-0.965-0.091-1.302-0.276c-0.332-0.184-0.497-0.424-0.497-0.725
			C258.038,474.229,258.279,473.953,258.76,473.79z M258.984,473.867c-0.319,0.139-0.478,0.37-0.478,0.689
			c0,0.27,0.111,0.476,0.334,0.629c0.222,0.15,0.526,0.228,0.916,0.228c0.455,0,0.837-0.087,1.141-0.262
			c0.305-0.176,0.458-0.396,0.458-0.657c0-0.312-0.237-0.464-0.705-0.464c-0.065,0-0.241-0.013-0.531-0.032l-0.533-0.036
			C259.336,473.945,259.136,473.913,258.984,473.867z M259.897,469.595c-0.252,0-0.467,0.115-0.642,0.342
			c-0.177,0.229-0.264,0.499-0.264,0.82c0,0.418,0.094,0.76,0.283,1.025c0.188,0.27,0.425,0.402,0.718,0.402
			c0.273,0,0.493-0.106,0.66-0.323c0.17-0.217,0.253-0.497,0.253-0.848c0-0.409-0.096-0.745-0.288-1.013
			C260.43,469.732,260.185,469.595,259.897,469.595z"/>
		<path display="inline" fill="#595757" d="M263.793,470.223c0.433-0.533,0.901-0.798,1.411-0.798c0.472,0,0.853,0.164,1.145,0.486
			c0.296,0.325,0.439,0.75,0.439,1.276v1.592c0,0.251,0.043,0.427,0.128,0.521c0.081,0.093,0.262,0.161,0.534,0.205
			c0.092,0.015,0.135,0.051,0.135,0.111c0,0.058-0.043,0.09-0.135,0.09c-0.041,0-0.12-0.006-0.248-0.014
			c-0.247-0.019-0.462-0.026-0.638-0.026c-0.296,0-0.516,0.008-0.655,0.026c-0.082,0.01-0.132,0.014-0.156,0.014
			c-0.092,0-0.138-0.032-0.142-0.092c-0.004-0.043,0.028-0.074,0.099-0.103c0.171-0.064,0.28-0.123,0.316-0.172
			c0.04-0.054,0.063-0.157,0.063-0.303l0.003-0.157v-1.665c0-0.424-0.106-0.759-0.325-1.007c-0.219-0.251-0.51-0.373-0.872-0.373
			c-0.281,0-0.534,0.088-0.761,0.262c-0.229,0.178-0.341,0.377-0.341,0.594v1.946c0,0.342,0.037,0.563,0.114,0.666
			c0.079,0.098,0.267,0.168,0.563,0.209c0.117,0.016,0.175,0.056,0.175,0.12c0,0.057-0.038,0.085-0.113,0.085
			c-0.037,0-0.13-0.007-0.275-0.022c-0.121-0.013-0.377-0.017-0.769-0.017c-0.13,0-0.324,0.009-0.576,0.026
			c-0.111,0.009-0.188,0.013-0.233,0.013c-0.079,0-0.123-0.028-0.126-0.081c-0.002-0.061,0.037-0.101,0.115-0.124
			c0.199-0.061,0.321-0.129,0.365-0.207c0.046-0.074,0.066-0.258,0.066-0.548v-5.229c0-0.408-0.11-0.609-0.336-0.597l-0.255,0.017
			c-0.025,0-0.05-0.004-0.069-0.017c-0.023-0.013-0.034-0.035-0.034-0.066c0-0.047,0.038-0.081,0.111-0.101
			c0.216-0.048,0.451-0.135,0.709-0.26l0.393-0.185c0.038-0.021,0.073-0.032,0.104-0.032c0.06,0,0.088,0.038,0.088,0.111
			c0,0.021-0.004,0.062-0.012,0.122c-0.004,0.056-0.005,0.143-0.005,0.255V470.223z"/>
		<path display="inline" fill="#595757" d="M268.357,471.143l-0.007,0.113c0,0.574,0.159,1.056,0.477,1.447
			c0.313,0.39,0.704,0.587,1.168,0.587c0.362,0,0.761-0.162,1.19-0.49c0.028-0.021,0.052-0.032,0.075-0.034
			c0.047-0.004,0.071,0.021,0.071,0.08c0,0.099-0.116,0.239-0.354,0.423c-0.432,0.339-0.896,0.508-1.38,0.508
			c-0.547,0-1.004-0.207-1.373-0.623s-0.553-0.931-0.553-1.542c0-0.584,0.189-1.094,0.571-1.53c0.381-0.438,0.828-0.656,1.341-0.656
			c0.561,0,1.007,0.232,1.342,0.699c0.082,0.112,0.161,0.269,0.245,0.462c0.085,0.195,0.125,0.33,0.125,0.408
			c0,0.108-0.107,0.165-0.328,0.165l-0.368-0.004l-0.343-0.013H268.357z M268.384,470.867h1.703c0.265,0,0.399-0.054,0.399-0.161
			c0-0.261-0.115-0.504-0.339-0.728c-0.227-0.225-0.473-0.337-0.738-0.337c-0.274,0-0.503,0.108-0.688,0.327
			C268.542,470.19,268.429,470.487,268.384,470.867z"/>
		<path display="inline" fill="#595757" d="M275.022,473.024c-0.386,0.503-0.858,0.752-1.418,0.752c-0.469,0-0.833-0.145-1.1-0.437
			c-0.26-0.291-0.394-0.695-0.394-1.216l0.006-0.332v-1.668c0-0.171-0.036-0.289-0.107-0.358c-0.071-0.066-0.2-0.104-0.393-0.114
			c-0.082-0.006-0.125-0.04-0.119-0.103c0.002-0.059,0.104-0.093,0.312-0.101l0.382-0.02c0.088-0.004,0.211-0.028,0.381-0.067
			c0.047-0.014,0.081-0.02,0.109-0.02c0.093,0,0.137,0.077,0.137,0.235v0.076l-0.027,2.248v0.162l0.081,0.609
			c0.069,0.215,0.203,0.392,0.392,0.533c0.193,0.141,0.4,0.211,0.622,0.211c0.296,0,0.559-0.087,0.789-0.26
			c0.229-0.173,0.346-0.37,0.346-0.594v-2.407c0-0.191-0.033-0.321-0.098-0.395c-0.066-0.07-0.189-0.104-0.365-0.104
			c-0.109,0-0.162-0.032-0.162-0.095c0-0.074,0.061-0.112,0.183-0.114l0.165-0.012l0.354-0.016c0.112-0.004,0.246-0.033,0.394-0.079
			c0.048-0.017,0.087-0.024,0.12-0.028c0.07-0.004,0.106,0.059,0.106,0.181v3.268c0,0.257,0.024,0.428,0.083,0.511
			c0.055,0.082,0.167,0.12,0.338,0.12h0.079l0.071-0.004c0.07,0,0.11,0.026,0.114,0.076c0.003,0.073-0.093,0.115-0.291,0.125
			l-0.313,0.02c-0.22,0.009-0.361,0.022-0.419,0.038c-0.084,0.019-0.146,0.03-0.188,0.03c-0.105,0-0.16-0.156-0.16-0.464
			L275.022,473.024z"/>
		<path display="inline" fill="#595757" d="M278.009,470.223c0.448-0.533,0.914-0.798,1.396-0.798c0.536,0,0.959,0.221,1.27,0.658
			c0.217,0.302,0.324,0.763,0.324,1.38v1.202l-0.004,0.149l0.012,0.24c0.038,0.224,0.178,0.353,0.426,0.389l0.209,0.029
			c0.094,0.014,0.139,0.047,0.144,0.097c0.003,0.072-0.052,0.108-0.165,0.108c-0.04,0-0.105-0.006-0.198-0.016
			c-0.109-0.017-0.313-0.022-0.61-0.022l-0.497,0.015h-0.19l-0.146,0.012l-0.075-0.017c-0.02-0.012-0.032-0.038-0.032-0.076
			c0-0.048,0.03-0.083,0.089-0.095l0.152-0.039c0.135-0.035,0.202-0.155,0.202-0.362v-1.731c0-0.466-0.109-0.824-0.321-1.077
			c-0.214-0.253-0.52-0.378-0.915-0.378c-0.277,0-0.525,0.08-0.742,0.243c-0.215,0.165-0.323,0.352-0.323,0.564v1.915l0.005,0.15
			l0.006,0.251c0.016,0.283,0.249,0.437,0.696,0.464c0.111,0.008,0.166,0.047,0.166,0.107c0,0.06-0.04,0.092-0.117,0.092
			c-0.055,0-0.139-0.012-0.256-0.028c-0.063-0.008-0.22-0.01-0.47-0.01c-0.532,0-0.851,0.006-0.956,0.022
			c-0.105,0.01-0.17,0.016-0.198,0.016c-0.066,0-0.094-0.028-0.094-0.084c0.005-0.042,0.035-0.074,0.098-0.102
			c0.166-0.057,0.282-0.132,0.343-0.216c0.059-0.09,0.086-0.229,0.086-0.425v-2.268c0-0.234-0.027-0.397-0.085-0.485
			c-0.059-0.083-0.165-0.126-0.321-0.126l-0.215,0.006c-0.031,0-0.058-0.008-0.078-0.021c-0.032-0.013-0.047-0.038-0.047-0.07
			c0-0.048,0.043-0.08,0.132-0.098c0.224-0.041,0.436-0.107,0.643-0.204l0.268-0.131c0.101-0.05,0.167-0.082,0.196-0.093
			c0.047-0.027,0.085-0.042,0.119-0.042c0.059,0,0.088,0.049,0.08,0.145c-0.004,0.055-0.004,0.117-0.004,0.191V470.223z"/>
		<path display="inline" fill="#595757" d="M282.435,473.79v-0.035c-0.23-0.173-0.343-0.366-0.343-0.572
			c0-0.389,0.196-0.725,0.585-0.998c-0.443-0.266-0.668-0.678-0.668-1.238c0-0.437,0.146-0.798,0.44-1.088
			c0.292-0.289,0.661-0.434,1.102-0.434c0.399,0,0.759,0.104,1.075,0.304c0.114,0.073,0.199,0.11,0.247,0.11
			c0.12,0,0.257-0.041,0.406-0.127c0.152-0.087,0.241-0.171,0.272-0.256l0.063-0.192c0.012-0.036,0.039-0.055,0.081-0.059
			c0.058-0.004,0.084,0.036,0.084,0.12c0,0.069-0.026,0.197-0.078,0.393c-0.05,0.195-0.098,0.332-0.135,0.408
			c-0.06,0.11-0.155,0.187-0.3,0.229c-0.063,0.018-0.095,0.047-0.095,0.088c0,0.022,0.007,0.057,0.017,0.097
			c0.029,0.104,0.045,0.247,0.045,0.423c0,0.381-0.156,0.713-0.467,0.996c-0.31,0.281-0.674,0.423-1.088,0.423
			c-0.177,0-0.376-0.017-0.597-0.061c-0.064-0.014-0.117-0.022-0.162-0.022c-0.104,0-0.206,0.059-0.305,0.177
			c-0.099,0.117-0.147,0.239-0.147,0.366c0,0.173,0.094,0.298,0.277,0.372c0.184,0.072,0.496,0.11,0.938,0.11
			c0.66,0,1.127,0.066,1.398,0.205c0.275,0.137,0.41,0.374,0.41,0.708c0,0.386-0.189,0.712-0.572,0.979
			c-0.385,0.268-0.854,0.402-1.408,0.402c-0.534,0-0.972-0.091-1.303-0.276c-0.333-0.184-0.499-0.424-0.499-0.725
			C281.71,474.229,281.952,473.953,282.435,473.79z M282.656,473.867c-0.317,0.139-0.476,0.37-0.476,0.689
			c0,0.27,0.112,0.476,0.334,0.629c0.223,0.15,0.525,0.228,0.915,0.228c0.457,0,0.837-0.087,1.142-0.262
			c0.304-0.176,0.457-0.396,0.457-0.657c0-0.312-0.234-0.464-0.705-0.464c-0.064,0-0.24-0.013-0.533-0.032l-0.526-0.036
			C283.011,473.945,282.811,473.913,282.656,473.867z M283.574,469.595c-0.258,0-0.47,0.115-0.646,0.342
			c-0.174,0.229-0.262,0.499-0.262,0.82c0,0.418,0.096,0.76,0.285,1.025c0.185,0.27,0.423,0.402,0.715,0.402
			c0.272,0,0.494-0.106,0.664-0.323c0.167-0.217,0.249-0.497,0.249-0.848c0-0.409-0.095-0.745-0.287-1.013
			C284.103,469.732,283.86,469.595,283.574,469.595z"/>
		<path display="inline" fill="#595757" d="M294.856,471.944v-1.131c0-0.205-0.045-0.344-0.134-0.419
			c-0.088-0.073-0.266-0.12-0.534-0.143c-0.129-0.012-0.196-0.054-0.201-0.126c-0.002-0.061,0.056-0.092,0.172-0.092l0.203,0.004
			l0.375,0.006c0.52,0,0.816-0.002,0.901-0.01c0.231-0.015,0.364-0.022,0.401-0.022c0.078,0,0.117,0.032,0.117,0.092
			c0,0.057-0.053,0.097-0.152,0.123c-0.254,0.058-0.379,0.247-0.379,0.555l0.004,0.161v1.609l0.009,0.161l-0.027,0.077
			c-0.021,0.019-0.069,0.032-0.146,0.04c-0.091,0.014-0.23,0.074-0.418,0.183l-0.332,0.195c-0.653,0.38-1.354,0.568-2.105,0.568
			c-1.006,0-1.828-0.321-2.471-0.966c-0.646-0.645-0.967-1.471-0.967-2.476c0-1.054,0.341-1.935,1.022-2.636
			c0.682-0.706,1.537-1.055,2.561-1.055c0.394,0,0.813,0.055,1.258,0.17c0.442,0.113,0.797,0.256,1.062,0.425
			c0.04,0.026,0.07,0.04,0.086,0.04c0.024,0,0.056-0.014,0.097-0.04l0.119-0.089c0.023-0.021,0.047-0.03,0.07-0.03
			c0.062,0,0.09,0.078,0.09,0.235c0,0.072,0.012,0.188,0.03,0.342l0.051,0.473c0.017,0.127,0.041,0.255,0.069,0.381
			c0.02,0.06,0.027,0.107,0.027,0.146c0,0.081-0.035,0.121-0.101,0.127c-0.044,0.004-0.08-0.027-0.11-0.087
			c-0.263-0.532-0.661-0.967-1.208-1.299c-0.539-0.333-1.119-0.502-1.726-0.502c-0.756,0-1.376,0.289-1.855,0.864
			c-0.479,0.577-0.719,1.317-0.719,2.228c0,0.975,0.277,1.793,0.828,2.448c0.55,0.658,1.234,0.985,2.049,0.985
			c0.777,0,1.385-0.276,1.825-0.824C294.804,472.503,294.856,472.271,294.856,471.944z"/>
		<path display="inline" fill="#595757" d="M298.573,469.425c0.604,0,1.119,0.21,1.553,0.637c0.434,0.422,0.648,0.929,0.648,1.515
			c0,0.637-0.213,1.161-0.639,1.577c-0.422,0.416-0.962,0.623-1.609,0.623c-0.638,0-1.16-0.203-1.57-0.605
			c-0.412-0.403-0.615-0.921-0.615-1.552c0-0.607,0.217-1.125,0.652-1.554C297.428,469.637,297.953,469.425,298.573,469.425z
			 M298.447,469.623c-0.419,0-0.756,0.156-1.011,0.466c-0.256,0.312-0.385,0.719-0.385,1.221c0,0.641,0.161,1.179,0.48,1.611
			c0.316,0.43,0.714,0.645,1.189,0.645c0.416,0,0.74-0.152,0.98-0.456c0.24-0.306,0.358-0.72,0.358-1.244
			c0-0.662-0.15-1.2-0.45-1.617C299.31,469.832,298.922,469.623,298.447,469.623z"/>
		<path display="inline" fill="#595757" d="M302.377,466.583v5.897c0,0.272,0.029,0.486,0.093,0.633
			c0.074,0.167,0.28,0.279,0.624,0.336c0.091,0.018,0.142,0.054,0.145,0.104c0.004,0.076-0.03,0.112-0.105,0.112
			c-0.031,0-0.074-0.004-0.13-0.019c-0.051-0.008-0.126-0.014-0.228-0.014l-0.438,0.006h-0.26c-0.318,0-0.512,0.004-0.588,0.015
			c-0.105,0.016-0.169,0.023-0.188,0.023c-0.087,0-0.134-0.032-0.138-0.098c-0.003-0.057,0.043-0.098,0.142-0.123
			c0.149-0.046,0.25-0.101,0.303-0.175c0.049-0.072,0.076-0.189,0.076-0.348v-5.573c0-0.308-0.107-0.46-0.322-0.46l-0.25,0.008
			c-0.032,0-0.064-0.004-0.087-0.01c-0.038-0.019-0.059-0.045-0.059-0.083c0-0.048,0.043-0.082,0.13-0.106
			c0.114-0.028,0.217-0.06,0.312-0.097l0.308-0.126c0.233-0.096,0.397-0.175,0.49-0.242c0.038-0.025,0.07-0.037,0.098-0.037
			c0.051-0.005,0.075,0.069,0.075,0.219L302.377,466.583z"/>
		<path display="inline" fill="#595757" d="M306.538,473.037c-0.34,0.289-0.619,0.488-0.832,0.589
			c-0.211,0.101-0.453,0.15-0.719,0.15c-0.505,0-0.932-0.196-1.272-0.594c-0.348-0.396-0.517-0.884-0.517-1.467
			c0-0.641,0.205-1.186,0.614-1.627c0.411-0.443,0.914-0.664,1.512-0.664c0.404,0,0.809,0.122,1.214,0.358v-1.989
			c0-0.636-0.171-0.945-0.512-0.923l-0.175,0.01c-0.024,0-0.044-0.004-0.063-0.01c-0.036-0.015-0.056-0.042-0.056-0.078
			c-0.008-0.066,0.041-0.109,0.144-0.121c0.346-0.042,0.739-0.199,1.178-0.464c0.037-0.024,0.068-0.034,0.095-0.034
			c0.052,0,0.075,0.036,0.075,0.108l0.004,0.092v6.396c0,0.382,0.119,0.57,0.347,0.57l0.296-0.012l0.046,0.008
			c0.037,0.013,0.056,0.038,0.056,0.075c0,0.073-0.062,0.116-0.182,0.129c-0.139,0.014-0.227,0.021-0.262,0.029l-0.281,0.047
			c-0.223,0.031-0.368,0.07-0.442,0.104c-0.065,0.038-0.112,0.056-0.151,0.056c-0.077,0.004-0.115-0.08-0.115-0.249V473.037z
			 M306.538,472.428v-1.662c0-0.3-0.073-0.523-0.22-0.665c-0.335-0.317-0.724-0.478-1.18-0.478c-0.405,0-0.73,0.154-0.98,0.462
			c-0.248,0.31-0.373,0.714-0.373,1.219c0,0.549,0.162,1.027,0.487,1.43c0.326,0.406,0.714,0.606,1.157,0.606
			c0.327,0,0.595-0.086,0.801-0.253C306.435,472.918,306.538,472.699,306.538,472.428z"/>
		<path display="inline" fill="#595757" d="M312.294,469.425c0.266,0,0.492,0.033,0.685,0.106l0.22,0.072
			c0.092,0.031,0.137,0.084,0.137,0.152v0.083c0,0.046,0.004,0.092,0.01,0.14l0.018,0.195c0.012,0.068,0.016,0.133,0.016,0.189
			c0,0.131-0.036,0.196-0.112,0.2c-0.04,0.003-0.079-0.04-0.113-0.128c-0.184-0.509-0.529-0.76-1.036-0.76
			c-0.201,0-0.365,0.057-0.495,0.169c-0.129,0.116-0.194,0.259-0.194,0.434c0,0.184,0.069,0.334,0.209,0.446
			c0.141,0.117,0.42,0.256,0.844,0.418c0.42,0.165,0.711,0.34,0.874,0.521c0.16,0.183,0.238,0.428,0.238,0.735
			c0,0.38-0.135,0.702-0.416,0.975c-0.279,0.268-0.614,0.402-1.002,0.402c-0.279,0-0.579-0.078-0.904-0.232
			c-0.077-0.039-0.125-0.058-0.145-0.058l-0.129-0.016c-0.081-0.006-0.121-0.045-0.127-0.122l-0.005-0.217l-0.018-0.64l0.012-0.151
			c0.012-0.091,0.047-0.136,0.111-0.14c0.059-0.004,0.099,0.045,0.12,0.15c0.072,0.365,0.207,0.653,0.41,0.862
			c0.201,0.205,0.445,0.308,0.729,0.308c0.245,0,0.446-0.072,0.603-0.217c0.154-0.142,0.232-0.328,0.232-0.554
			c0-0.342-0.189-0.597-0.563-0.764l-0.445-0.195c-0.4-0.177-0.686-0.357-0.854-0.542c-0.165-0.186-0.249-0.412-0.249-0.68
			c0-0.32,0.129-0.592,0.387-0.814C311.595,469.537,311.915,469.425,312.294,469.425z"/>
		<path display="inline" fill="#595757" d="M315.224,470.166c0.497-0.493,0.989-0.741,1.479-0.741c0.502,0,0.921,0.19,1.259,0.566
			c0.336,0.382,0.503,0.853,0.503,1.419c0,0.651-0.201,1.211-0.61,1.671c-0.412,0.465-0.905,0.695-1.485,0.695
			c-0.324,0-0.705-0.099-1.145-0.298v1.01c0,0.37,0.052,0.615,0.156,0.735c0.104,0.122,0.31,0.186,0.617,0.186
			c0.104,0,0.156,0.034,0.156,0.106c0,0.059-0.048,0.087-0.142,0.087l-0.257-0.006l-0.479-0.01l-0.53-0.007l-0.21,0.007
			l-0.195,0.016l-0.238,0.006l-0.065-0.012c-0.03-0.012-0.047-0.041-0.047-0.081c0-0.057,0.046-0.091,0.134-0.106
			c0.155-0.032,0.263-0.103,0.322-0.215c0.057-0.11,0.088-0.298,0.088-0.556l-0.008-0.19v-3.758l-0.012-0.211
			c0-0.191-0.035-0.323-0.11-0.396s-0.215-0.112-0.415-0.112h-0.084c-0.032,0-0.056-0.002-0.071-0.008
			c-0.024-0.015-0.037-0.036-0.037-0.068c0-0.052,0.042-0.09,0.129-0.111c0.561-0.146,0.943-0.308,1.151-0.479
			c0.04-0.034,0.072-0.051,0.094-0.051c0.053,0,0.078,0.047,0.078,0.142l-0.004,0.094L315.224,470.166z M315.224,470.698v1.717
			c0,0.328,0.118,0.592,0.352,0.789c0.234,0.196,0.547,0.295,0.934,0.295c0.429,0,0.767-0.143,1.01-0.43
			c0.248-0.288,0.371-0.682,0.371-1.182c0-0.594-0.143-1.076-0.433-1.448c-0.287-0.374-0.659-0.561-1.115-0.561
			c-0.303,0-0.563,0.082-0.786,0.241C315.336,470.28,315.224,470.474,315.224,470.698z"/>
		<path display="inline" fill="#595757" d="M321.093,471.437v-0.619c0-0.386-0.069-0.651-0.211-0.798
			c-0.199-0.201-0.456-0.302-0.786-0.302c-0.441,0-0.662,0.187-0.662,0.557c0,0.11,0.022,0.235,0.063,0.379
			c0.021,0.057,0.032,0.112,0.038,0.158c0.002,0.06-0.029,0.088-0.102,0.088c-0.155,0-0.297-0.032-0.425-0.101
			c-0.129-0.063-0.192-0.138-0.192-0.219c0-0.207,0.11-0.43,0.336-0.669c0.3-0.326,0.7-0.486,1.199-0.486
			c0.454,0,0.807,0.104,1.056,0.304c0.253,0.202,0.38,0.488,0.38,0.854v1.968c0,0.312,0.035,0.529,0.111,0.664
			c0.077,0.133,0.201,0.197,0.379,0.197c0.049,0,0.091-0.002,0.12-0.011c0.061-0.014,0.099-0.021,0.12-0.021
			c0.06-0.002,0.085,0.02,0.081,0.07c-0.004,0.063-0.083,0.122-0.235,0.185c-0.155,0.061-0.306,0.093-0.454,0.093
			c-0.275,0-0.522-0.165-0.746-0.503c-0.484,0.368-0.932,0.553-1.346,0.553c-0.315,0-0.567-0.084-0.753-0.253
			c-0.181-0.167-0.274-0.394-0.274-0.68c0-0.386,0.173-0.684,0.526-0.897C319.666,471.734,320.258,471.565,321.093,471.437z
			 M321.093,471.637c-0.519,0.045-0.92,0.166-1.198,0.353c-0.284,0.189-0.425,0.431-0.425,0.722c0,0.231,0.065,0.415,0.201,0.547
			c0.134,0.135,0.314,0.203,0.545,0.203c0.279,0,0.514-0.091,0.705-0.276c0.116-0.115,0.172-0.299,0.172-0.552V471.637z"/>
		<path display="inline" fill="#595757" d="M326.585,472.725c0.607,0.514,1.049,0.766,1.324,0.766c0.038,0,0.077-0.006,0.117-0.021
			c0.048-0.016,0.084-0.025,0.107-0.027c0.034-0.002,0.052,0.014,0.052,0.045c0,0.054-0.065,0.102-0.201,0.151
			c-0.133,0.049-0.269,0.072-0.412,0.072c-0.203,0-0.388-0.038-0.556-0.116c-0.168-0.076-0.409-0.237-0.729-0.484
			c-0.453,0.402-0.929,0.601-1.427,0.601c-0.507,0-0.929-0.145-1.264-0.438c-0.337-0.292-0.501-0.659-0.501-1.106
			c0-0.368,0.128-0.68,0.387-0.937c0.14-0.143,0.34-0.243,0.595-0.304c-0.183-0.235-0.272-0.466-0.272-0.693
			c0-0.243,0.09-0.439,0.274-0.587c0.184-0.151,0.421-0.225,0.72-0.225c0.153,0,0.311,0.031,0.476,0.094l0.143,0.057l0.032,0.006
			c0.017-0.004,0.039-0.015,0.065-0.034c0.019-0.014,0.036-0.024,0.052-0.024c0.055-0.002,0.083,0.072,0.083,0.22l0.008,0.168
			l0.017,0.242c0.001,0.052,0.002,0.082,0.002,0.094c0,0.046-0.022,0.068-0.066,0.068c-0.028,0-0.048-0.026-0.065-0.074
			c-0.056-0.167-0.173-0.313-0.352-0.445c-0.175-0.13-0.348-0.196-0.52-0.196c-0.142,0-0.263,0.047-0.366,0.134
			c-0.102,0.088-0.153,0.192-0.153,0.317c0,0.118,0.048,0.249,0.146,0.397c0.096,0.148,0.258,0.342,0.485,0.578l0.773,0.795
			c0.202,0.207,0.482,0.467,0.852,0.782c0.105-0.179,0.157-0.378,0.157-0.595c0-0.163-0.033-0.298-0.095-0.406
			c-0.065-0.109-0.152-0.173-0.258-0.193l-0.146-0.025c-0.061-0.013-0.088-0.044-0.087-0.085c0-0.027,0.023-0.042,0.066-0.042
			c0.017,0,0.044,0.002,0.083,0.008c0.061,0.009,0.241,0.011,0.531,0.011c0.096,0,0.18-0.002,0.256-0.011
			c0.073-0.006,0.125-0.008,0.155-0.008c0.036,0,0.054,0.017,0.056,0.048c0.004,0.031-0.023,0.059-0.082,0.079
			c-0.067,0.023-0.109,0.063-0.136,0.122c-0.025,0.057-0.045,0.161-0.057,0.312C326.821,472.158,326.734,472.464,326.585,472.725z
			 M326.098,472.963c-0.065-0.059-0.107-0.096-0.125-0.113l-0.296-0.249c-0.165-0.143-0.384-0.354-0.654-0.629
			c-0.269-0.277-0.484-0.511-0.639-0.697c-0.126-0.153-0.233-0.228-0.322-0.228c-0.135,0-0.271,0.08-0.405,0.247
			c-0.139,0.169-0.211,0.374-0.211,0.619c0,0.3,0.12,0.588,0.357,0.858c0.326,0.374,0.739,0.563,1.243,0.563
			C325.465,473.334,325.815,473.21,326.098,472.963z"/>
		<g display="inline">
			<path fill="#595757" d="M330.016,470.337c0.389-0.608,0.747-0.912,1.077-0.912c0.104,0,0.242,0.063,0.41,0.187
				c0.169,0.123,0.258,0.224,0.265,0.3c0.003,0.052-0.05,0.141-0.161,0.275c-0.107,0.135-0.187,0.2-0.234,0.206
				c-0.024,0-0.098-0.039-0.224-0.12c-0.142-0.101-0.281-0.152-0.409-0.152c-0.204,0-0.376,0.076-0.512,0.226
				c-0.14,0.146-0.207,0.329-0.207,0.55v1.79c0,0.281,0.039,0.478,0.115,0.597c0.072,0.118,0.204,0.187,0.391,0.204l0.262,0.019
				c0.11,0.009,0.161,0.041,0.161,0.101c0,0.066-0.044,0.101-0.142,0.101c-0.023,0-0.102-0.012-0.234-0.026
				c-0.065-0.006-0.159-0.01-0.282-0.01l-0.36-0.004h-0.224c-0.263,0-0.448,0.008-0.556,0.026c-0.089,0.012-0.151,0.021-0.185,0.024
				c-0.09,0.002-0.136-0.03-0.136-0.099c0-0.057,0.053-0.093,0.157-0.113c0.143-0.034,0.237-0.096,0.278-0.185
				c0.04-0.09,0.064-0.281,0.064-0.577v-2.155c0-0.386-0.185-0.576-0.555-0.576l-0.171,0.006c-0.076,0-0.117-0.034-0.117-0.103
				c0-0.04,0.023-0.072,0.076-0.091c0.031-0.008,0.069-0.014,0.11-0.018c0.315-0.029,0.686-0.176,1.114-0.438
				c0.043-0.026,0.084-0.039,0.114-0.043c0.078-0.004,0.117,0.053,0.117,0.171l-0.005,0.097V470.337z"/>
			<path fill="#595757" d="M332.383,471.143l-0.005,0.113c0,0.574,0.156,1.056,0.476,1.447c0.314,0.39,0.706,0.587,1.17,0.587
				c0.364,0,0.761-0.162,1.188-0.49c0.029-0.021,0.054-0.032,0.074-0.034c0.05-0.004,0.072,0.021,0.072,0.08
				c0,0.099-0.115,0.239-0.35,0.423c-0.437,0.339-0.899,0.508-1.384,0.508c-0.542,0-1.003-0.207-1.373-0.623
				s-0.552-0.931-0.552-1.542c0-0.584,0.188-1.094,0.57-1.53c0.383-0.438,0.829-0.656,1.342-0.656c0.56,0,1.007,0.232,1.343,0.699
				c0.079,0.112,0.162,0.269,0.242,0.462c0.087,0.195,0.128,0.33,0.128,0.408c0,0.108-0.107,0.165-0.326,0.165l-0.371-0.004
				l-0.344-0.013H332.383z M332.411,470.867h1.702c0.267,0,0.398-0.054,0.398-0.161c0-0.261-0.111-0.504-0.34-0.728
				c-0.225-0.225-0.468-0.337-0.737-0.337c-0.271,0-0.501,0.108-0.685,0.327C332.567,470.19,332.454,470.487,332.411,470.867z"/>
			<path fill="#595757" d="M337.191,469.425c0.265,0,0.495,0.033,0.683,0.106l0.223,0.072c0.09,0.031,0.134,0.084,0.134,0.152v0.083
				c0,0.046,0.004,0.092,0.01,0.14l0.021,0.195c0.011,0.068,0.015,0.133,0.015,0.189c0,0.131-0.039,0.196-0.112,0.2
				c-0.041,0.003-0.08-0.04-0.114-0.128c-0.182-0.509-0.529-0.76-1.035-0.76c-0.203,0-0.366,0.057-0.497,0.169
				c-0.128,0.116-0.191,0.259-0.191,0.434c0,0.184,0.069,0.334,0.208,0.446c0.14,0.117,0.421,0.256,0.845,0.418
				c0.418,0.165,0.707,0.34,0.87,0.521c0.163,0.183,0.244,0.428,0.244,0.735c0,0.38-0.141,0.702-0.421,0.975
				c-0.277,0.268-0.613,0.402-1,0.402c-0.277,0-0.579-0.078-0.904-0.232c-0.077-0.039-0.125-0.058-0.146-0.058l-0.129-0.016
				c-0.077-0.006-0.121-0.045-0.129-0.122l-0.006-0.217l-0.014-0.64l0.01-0.151c0.014-0.091,0.049-0.136,0.112-0.14
				c0.061-0.004,0.101,0.045,0.12,0.15c0.071,0.365,0.206,0.653,0.412,0.862c0.201,0.205,0.442,0.308,0.729,0.308
				c0.243,0,0.444-0.072,0.602-0.217c0.155-0.142,0.233-0.328,0.233-0.554c0-0.342-0.188-0.597-0.564-0.764l-0.443-0.195
				c-0.404-0.177-0.688-0.357-0.854-0.542c-0.17-0.186-0.251-0.412-0.251-0.68c0-0.32,0.129-0.592,0.386-0.814
				C336.494,469.537,336.811,469.425,337.191,469.425z"/>
			<path fill="#595757" d="M341.123,469.425c0.604,0,1.119,0.21,1.553,0.637c0.43,0.422,0.645,0.929,0.645,1.515
				c0,0.637-0.209,1.161-0.636,1.577c-0.425,0.416-0.961,0.623-1.613,0.623c-0.635,0-1.158-0.203-1.567-0.605
				c-0.411-0.403-0.615-0.921-0.615-1.552c0-0.607,0.216-1.125,0.653-1.554C339.974,469.637,340.503,469.425,341.123,469.425z
				 M340.996,469.623c-0.419,0-0.758,0.156-1.01,0.466c-0.257,0.312-0.385,0.719-0.385,1.221c0,0.641,0.16,1.179,0.478,1.611
				c0.318,0.43,0.718,0.645,1.191,0.645c0.414,0,0.743-0.152,0.979-0.456c0.241-0.306,0.361-0.72,0.361-1.244
				c0-0.662-0.151-1.2-0.452-1.617C341.855,469.832,341.469,469.623,340.996,469.623z"/>
			<path fill="#595757" d="M344.934,470.337c0.387-0.608,0.748-0.912,1.075-0.912c0.104,0,0.241,0.063,0.41,0.187
				c0.172,0.123,0.259,0.224,0.267,0.3c0.002,0.052-0.05,0.141-0.163,0.275c-0.11,0.135-0.185,0.2-0.233,0.206
				c-0.023,0-0.098-0.039-0.223-0.12c-0.144-0.101-0.279-0.152-0.41-0.152c-0.205,0-0.376,0.076-0.512,0.226
				c-0.137,0.146-0.207,0.329-0.207,0.55v1.79c0,0.281,0.038,0.478,0.112,0.597c0.076,0.118,0.208,0.187,0.396,0.204l0.261,0.019
				c0.109,0.009,0.159,0.041,0.159,0.101c0,0.066-0.044,0.101-0.141,0.101c-0.022,0-0.1-0.012-0.235-0.026
				c-0.064-0.006-0.156-0.01-0.28-0.01l-0.362-0.004h-0.222c-0.263,0-0.45,0.008-0.56,0.026c-0.087,0.012-0.146,0.021-0.182,0.024
				c-0.089,0.002-0.135-0.03-0.135-0.099c0-0.057,0.052-0.093,0.157-0.113c0.144-0.034,0.237-0.096,0.278-0.185
				c0.041-0.09,0.064-0.281,0.064-0.577v-2.155c0-0.386-0.186-0.576-0.554-0.576l-0.175,0.006c-0.074,0-0.114-0.034-0.114-0.103
				c0-0.04,0.024-0.072,0.075-0.091c0.031-0.008,0.066-0.014,0.11-0.018c0.314-0.029,0.687-0.176,1.113-0.438
				c0.044-0.026,0.083-0.039,0.117-0.043c0.075-0.004,0.115,0.053,0.115,0.171l-0.004,0.097V470.337z"/>
			<path fill="#595757" d="M348.165,470.034v2.527c0,0.331,0.05,0.542,0.142,0.641c0.138,0.145,0.334,0.215,0.589,0.215
				c0.199,0,0.373-0.036,0.514-0.112l0.261-0.126l0.03-0.01c0.041,0,0.062,0.018,0.062,0.055c0,0.112-0.134,0.231-0.4,0.36
				c-0.263,0.129-0.51,0.192-0.737,0.192c-0.77,0-1.152-0.402-1.152-1.207v-2.535h-0.45c-0.089,0-0.133-0.024-0.133-0.077
				c0-0.046,0.044-0.106,0.133-0.182c0.394-0.331,0.695-0.664,0.905-0.998c0.091-0.146,0.152-0.223,0.19-0.223
				c0.048,0,0.07,0.046,0.07,0.134l-0.022,0.868h1.068c0.146,0,0.259-0.025,0.341-0.081c0.048-0.033,0.084-0.055,0.106-0.057
				c0.041-0.006,0.057,0.01,0.051,0.055c0,0.017-0.016,0.06-0.045,0.126l-0.112,0.287c-0.039,0.099-0.111,0.147-0.221,0.147H348.165
				z"/>
		</g>
	</g>
	<g>
		<path d="M297.514,399.364c-0.629-0.706-1.199-1.45-1.712-2.228c0.813-0.226,1.722-0.353,2.848-0.417
			C298.649,396.72,298.273,397.906,297.514,399.364z"/>
		
			<linearGradient id="SVGID_1_" gradientUnits="userSpaceOnUse" x1="796.4463" y1="-575.6128" x2="799.9662" y2="-553.5201" gradientTransform="matrix(0.9875 0.1573 -0.1573 0.9875 -599.1251 816.566)">
			<stop  offset="0.0056" style="stop-color:#FFFFFF"/>
			<stop  offset="1" style="stop-color:#00AFEC"/>
		</linearGradient>
		<path fill="url(#SVGID_1_)" d="M284.108,368.797c-6.859,2.069-16.697,12.036-18.51,25.628
			c1.079-11.521,14.238-21.098,22.382-21.58c0.632-0.036,0.556-1.551,1.177-1.589l1.063-1.519
			C289.144,369.737,285.165,368.476,284.108,368.797z"/>
		
			<linearGradient id="SVGID_2_" gradientUnits="userSpaceOnUse" x1="926.9346" y1="-652.9087" x2="926.9346" y2="-686.2056" gradientTransform="matrix(1 0 0 1 -604.5771 1057.5879)">
			<stop  offset="0.0056" style="stop-color:#FFFFFF"/>
			<stop  offset="0.176" style="stop-color:#FFFEFE"/>
			<stop  offset="0.3068" style="stop-color:#FEF7FA"/>
			<stop  offset="0.4244" style="stop-color:#FCECF3"/>
			<stop  offset="0.5343" style="stop-color:#F9DBE8"/>
			<stop  offset="0.6388" style="stop-color:#F4C3D8"/>
			<stop  offset="0.7393" style="stop-color:#EFA4C4"/>
			<stop  offset="0.8367" style="stop-color:#E87CAB"/>
			<stop  offset="0.929" style="stop-color:#E24890"/>
			<stop  offset="1" style="stop-color:#DD007B"/>
		</linearGradient>
		<path fill="url(#SVGID_2_)" d="M329.245,399.718c1.371-7.034-2.852-20.388-14.025-28.335c9.688,6.334,12.012,22.445,8.637,29.869
			c-0.261,0.577,1.111,1.215,0.857,1.78l0.844,1.647C326.059,403.731,329.034,400.8,329.245,399.718z"/>
		
			<linearGradient id="SVGID_3_" gradientUnits="userSpaceOnUse" x1="884.999" y1="-633.085" x2="916.4559" y2="-633.085" gradientTransform="matrix(1 0 0 1 -604.5771 1057.5879)">
			<stop  offset="0.0056" style="stop-color:#FFFFFF"/>
			<stop  offset="0.1307" style="stop-color:#FDFEFD"/>
			<stop  offset="0.2556" style="stop-color:#F6FAF4"/>
			<stop  offset="0.3805" style="stop-color:#E9F3E4"/>
			<stop  offset="0.5054" style="stop-color:#D6EACE"/>
			<stop  offset="0.6304" style="stop-color:#BBDDAF"/>
			<stop  offset="0.7555" style="stop-color:#98CC89"/>
			<stop  offset="0.8783" style="stop-color:#66BA60"/>
			<stop  offset="1" style="stop-color:#00A73C"/>
		</linearGradient>
		<path fill="url(#SVGID_3_)" d="M280.406,424.934c5.509,4.584,19.249,7.297,31.589,1.32c-10.211,5.45-25.455-0.252-30.348-6.781
			c-0.377-0.505-1.598,0.392-1.972-0.106l-1.851-0.047C278.416,420.215,279.556,424.23,280.406,424.934z"/>
		
			<linearGradient id="SVGID_4_" gradientUnits="userSpaceOnUse" x1="869.71" y1="-649.2319" x2="922.8528" y2="-649.2319" gradientTransform="matrix(1 0 0 1 -604.5771 1057.5879)">
			<stop  offset="0.1404" style="stop-color:#00AAEB"/>
			<stop  offset="1" style="stop-color:#005EAE"/>
		</linearGradient>
		<path fill="url(#SVGID_4_)" d="M307.248,404.796c-4.158-1.068-7.452-3.053-9.784-5.66c-3.629,6.971-12.354,10.919-23.803,9.051
			c0,0,1.102-0.241,2.617-1.527c-5.961-1.049-10.471-6.771-10.471-6.771c2.602,10.924,9.674,13.536,9.674,13.536
			c-3.128-0.6-5.221-1.731-5.221-1.731c6.282,6.247,12.229,7.951,23.943,3.003c11.33-4.786,17.862-4.389,21.256-3.333
			C314.306,408.517,311.896,405.986,307.248,404.796z"/>
		
			<linearGradient id="SVGID_5_" gradientUnits="userSpaceOnUse" x1="879.8154" y1="-621.356" x2="899.1949" y2="-672.9054" gradientTransform="matrix(1 0 0 1 -604.5771 1057.5879)">
			<stop  offset="0" style="stop-color:#A50082"/>
			<stop  offset="0.1794" style="stop-color:#AA0082"/>
			<stop  offset="0.4527" style="stop-color:#B80080"/>
			<stop  offset="0.7839" style="stop-color:#CE007D"/>
			<stop  offset="1" style="stop-color:#DD007B"/>
		</linearGradient>
		<path fill="url(#SVGID_5_)" d="M286.476,402.886c2.937-2.999,6.225-4.845,9.572-5.593c-4.376-6.637-3.484-16.271,3.935-25.348
			c0,0-0.361,1.126,0.04,3.177c3.809-4.942,11.385-6.051,11.385-6.051c-10.76-3.206-16.561,1.608-16.561,1.608
			c2.083-2.407,4.109-3.653,4.109-3.653c-8.552,2.318-13.002,6.615-14.572,19.233c-1.592,12.784-5.475,18.167-8.105,20.399
			C279.423,407.211,282.972,406.465,286.476,402.886z"/>
		<path fill="#541B86" d="M297.464,399.136c-0.521-0.584-0.992-1.199-1.416-1.843c-3.348,0.748-6.636,2.594-9.572,5.593
			c-3.504,3.579-7.053,4.325-10.197,3.773c-1.516,1.286-2.617,1.527-2.617,1.527C285.11,410.055,293.835,406.106,297.464,399.136z"
			/>
		
			<linearGradient id="SVGID_6_" gradientUnits="userSpaceOnUse" x1="927.0176" y1="-656.8896" x2="902.0079" y2="-658.6347" gradientTransform="matrix(1 0 0 1 -604.5771 1057.5879)">
			<stop  offset="0" style="stop-color:#9BC822"/>
			<stop  offset="0.1324" style="stop-color:#92C426"/>
			<stop  offset="0.334" style="stop-color:#79BB2E"/>
			<stop  offset="0.5797" style="stop-color:#45AB38"/>
			<stop  offset="0.8577" style="stop-color:#009940"/>
			<stop  offset="1" style="stop-color:#009143"/>
		</linearGradient>
		<path fill="url(#SVGID_6_)" d="M313.61,392.194c-10.125-7.658-12.916-13.653-13.588-17.072c-1.865,2.422-2.83,5.761-1.547,10.353
			c1.176,4.204,1.076,8.112-0.072,11.474c7.992-0.559,15.971,5.033,20.15,16.07c0,0-0.884-0.967-3.094-1.655
			c2.336,5.76-0.477,12.827-0.477,12.827c8.162-7.712,6.886-15.144,6.886-15.144c1.044,3.008,1.11,5.385,1.11,5.385
			C325.25,405.866,323.753,399.863,313.61,392.194z"/>
		<path fill="#006F3F" d="M318.554,413.019c-4.18-11.037-12.158-16.629-20.15-16.07c-0.26,0.759-0.573,1.485-0.939,2.188
			c2.332,2.607,5.626,4.592,9.784,5.66c4.647,1.19,7.058,3.721,8.212,6.567C317.67,412.052,318.554,413.019,318.554,413.019z"/>
		<path fill="#94252A" d="M299.982,371.945c-7.419,9.076-8.311,18.711-3.935,25.348c0.782-0.171,1.568-0.29,2.355-0.345
			c1.148-3.361,1.248-7.27,0.072-11.474c-1.283-4.592-0.318-7.931,1.547-10.353C299.621,373.071,299.982,371.945,299.982,371.945z"
			/>
	</g>
</g>
</svg>
